<svg width="24" height="24" viewBox="0 0 24 24" fill="none" xmlns="http://www.w3.org/2000/svg">
<circle cx="12" cy="12" r="12" fill="black"/>
<path fill-rule="evenodd" clip-rule="evenodd" d="M7.78861 7.78844C6.83357 8.97397 6.41879 10.637 6.96487 12.5482C7.84713 15.636 10.6941 17.5379 11.8664 18.202C11.9911 18.2727 12.1334 18.2727 12.2582 18.202C13.4305 17.5379 16.2775 15.636 17.1597 12.5482C17.7057 10.637 17.2909 8.97397 16.3359 7.78843C15.3744 6.59482 13.8336 5.84682 12.0623 5.84682C10.291 5.84682 8.75017 6.59482 7.78861 7.78844ZM6.85881 7.0394C8.06141 5.54656 9.9533 4.65283 12.0623 4.65283C14.1713 4.65283 16.0631 5.54656 17.2657 7.03941C18.4748 8.54033 18.9556 10.6085 18.3077 12.8762C17.2876 16.4468 14.0644 18.551 12.8467 19.2409C12.3569 19.5184 11.7677 19.5184 11.2778 19.2409C10.0601 18.551 6.83702 16.4468 5.81683 12.8762C5.16887 10.6085 5.64969 8.54033 6.85881 7.0394Z" fill="#FFA9B6"/>
<path fill-rule="evenodd" clip-rule="evenodd" d="M12.0618 12.4137C12.5563 12.4137 12.9572 12.0127 12.9572 11.5182C12.9572 11.0236 12.5563 10.6227 12.0618 10.6227C11.5672 10.6227 11.1663 11.0236 11.1663 11.5182C11.1663 12.0127 11.5672 12.4137 12.0618 12.4137ZM12.0618 13.6077C13.2157 13.6077 14.1512 12.6722 14.1512 11.5182C14.1512 10.3642 13.2157 9.42871 12.0618 9.42871C10.9078 9.42871 9.97229 10.3642 9.97229 11.5182C9.97229 12.6722 10.9078 13.6077 12.0618 13.6077Z" fill="#FFA9B6"/>
</svg>
