<svg width="288" height="72" viewBox="0 0 288 72" fill="none" xmlns="http://www.w3.org/2000/svg">
<path d="M105.232 37.4765C105.232 37.4765 105.767 58.5202 93.9698 57.4648C82.1728 56.4093 86.3365 41.0543 88.5835 31.0786C90.8306 21.103 92.0843 3.88876 101.866 5.62513C109.997 7.06858 107.625 16.6381 106.593 19.8258C106.556 19.9416 106.764 20.0496 106.832 19.9491C109.324 16.3065 119.021 3.19235 126.222 8.40358C133.888 13.9532 124.015 26.3631 116.811 27.9633C116.58 28.0314 116.427 27.772 116.627 27.9084C119.891 30.1331 119.894 29.7513 122.62 32.7469C126.888 37.4374 128.898 47.0125 122.454 51.9152C116.011 56.8179 108.245 50.0426 106.725 43.744C105.205 37.4454 105.232 37.4765 105.232 37.4765Z" fill="white" stroke="black" stroke-width="2" stroke-miterlimit="10"/>
<path d="M163.223 33.1191C164.386 33.6975 165.41 34.4809 166.215 35.5136C166.229 35.5319 166.243 35.5527 166.253 35.5732C174.912 52.0738 158.059 56.5307 144.504 54.5485C144.504 54.5485 127.871 53.8985 126.853 42.7807C126.181 35.453 130.449 31.889 132.972 30.428C133.167 30.3149 133.064 29.8512 132.841 29.8132C130.247 29.3702 126.073 27.0764 126.073 22.3787C126.073 16.2276 133.189 10.3437 139.58 8.67493C142.548 7.90012 146.102 7.69985 147.033 7.6895C151.646 7.63824 155.95 8.24426 158.556 11.5522C160.893 14.5189 160.804 20.3067 155.308 22.6583C159.911 22.1713 163.518 23.5514 164.754 26.9239C165.743 29.6225 164.955 31.641 163.223 33.1191Z" fill="white"/>
<path d="M150.644 23.6582C160.636 23.1064 161.428 15.1984 158.556 11.5522C155.95 8.24426 151.646 7.63824 147.033 7.6895C146.102 7.69985 142.548 7.90012 139.58 8.67493C133.189 10.3437 126.073 16.2276 126.073 22.3787C126.073 27.0764 130.247 29.3702 132.841 29.8132C133.064 29.8512 133.167 30.3149 132.972 30.428C130.449 31.889 126.181 35.453 126.853 42.7807C127.871 53.8985 144.504 54.5485 144.504 54.5485C158.059 56.5307 174.912 52.0738 166.253 35.5732C166.243 35.5527 166.229 35.5319 166.215 35.5136C161.382 29.3121 148.639 32.1025 145.381 34.272C143.637 35.4336 144.975 36.0278 144.975 36.0278C147.766 37.5819 168.411 36.9025 164.754 26.9239C163.518 23.5514 159.911 22.1713 155.308 22.6583" stroke="black" stroke-width="2" stroke-miterlimit="10" stroke-linecap="round"/>
<path d="M61.6772 19.3958C61.7751 19.5934 61.6282 19.8274 61.4078 19.821C58.6621 19.7414 45.3076 19.9937 44.402 32.3747C43.3923 46.1798 55.0465 53.529 59.8621 54.2452C65.1425 56.6591 77.6647 54.2452 78.7208 46.2491C78.7208 46.2491 84.9574 50.4195 87.5205 50.1076C92.325 49.5185 94.056 38.7747 85.5455 23.9414C77.035 9.1081 68.1366 6.62833 63.3321 9.13521C58.0517 13.0578 61.6772 19.3958 61.6772 19.3958V19.3958Z" fill="white" stroke="black" stroke-width="2" stroke-miterlimit="10"/>
<path d="M57.1511 32.3707C57.1511 32.3707 63.9295 37.2185 65.9016 41.7246Z" fill="white"/>
<path d="M57.1511 32.3707C57.1511 32.3707 63.9295 37.2185 65.9016 41.7246" stroke="black" stroke-width="2" stroke-miterlimit="10" stroke-linecap="round"/>
<path d="M219.323 19.9479C219.421 20.1454 219.274 20.3795 219.053 20.3731C216.308 20.2934 202.953 20.5457 202.048 32.9267C201.038 46.7319 212.692 54.081 217.508 54.7973C222.788 57.2112 235.31 54.7973 236.366 46.8012C236.366 46.8012 242.603 50.9716 245.166 50.6597C249.971 50.0705 251.702 39.3268 243.191 24.4935C234.68 9.66016 225.782 7.1804 220.978 9.68727C215.697 13.6099 219.323 19.9479 219.323 19.9479V19.9479Z" fill="white" stroke="black" stroke-width="2" stroke-miterlimit="10"/>
<path d="M214.797 32.9227C214.797 32.9227 221.575 37.7705 223.547 42.2766Z" fill="white"/>
<path d="M214.797 32.9227C214.797 32.9227 221.575 37.7705 223.547 42.2766" stroke="black" stroke-width="2" stroke-miterlimit="10" stroke-linecap="round"/>
<path d="M29.3582 32.2489C25.6267 35.0515 23.5072 38.2547 23.5072 38.2547C19.5427 45.0768 23.5066 46.0856 24.5633 45.3456C25.62 44.6056 26.75 42.3561 26.072 37.1986C25.3459 31.6751 23.0357 27.3159 21.0409 24.2108C20.9783 24.1213 21.0021 24.1026 21.0409 24.2108C23.0398 27.2571 29.4886 37.5284 42.7042 29.9417C45.9176 27.6334 46.5729 25.1926 47.3337 22.5704C48.2102 19.5609 47.9292 16.0384 44.999 11.7983C39.1479 4.17336 30.954 3.0535 23.9077 6.38368C16.8614 9.71387 9.33866 18.1069 8.96839 31.6751C8.59812 45.2432 13.8659 54.9963 23.1753 56.6653C31.1144 57.6278 39.886 50.7442 43.208 42.993C43.208 42.993 46.1655 37.549 40.5984 31.9376" fill="white"/>
<path d="M29.3582 32.2489C25.6267 35.0515 23.5072 38.2547 23.5072 38.2547C19.5427 45.0768 23.5066 46.0856 24.5633 45.3456C25.62 44.6056 26.75 42.3561 26.072 37.1986C25.3459 31.6751 23.0357 27.3159 21.0409 24.2108M21.0409 24.2108C21.0021 24.1026 20.9783 24.1213 21.0409 24.2108ZM21.0409 24.2108C23.0398 27.2571 29.4886 37.5284 42.7042 29.9417C45.9176 27.6334 46.5729 25.1926 47.3337 22.5704C48.2102 19.5609 47.9292 16.0384 44.999 11.7983C39.1479 4.17336 30.954 3.0535 23.9077 6.38368C16.8614 9.71387 9.33866 18.1069 8.96839 31.6751C8.59812 45.2432 13.8659 54.9963 23.1753 56.6653C31.1144 57.6278 39.886 50.7442 43.208 42.993C43.208 42.993 46.1655 37.549 40.5984 31.9376" stroke="black" stroke-width="2" stroke-miterlimit="10"/>
<g clip-path="url(#clip0_3014_2720)">
<path d="M192.777 33.4871L197.998 16.0467C198.658 11.4144 195.181 9.44398 193.36 9.03781C190.907 8.31136 186.152 11.977 185.42 14.4206L181.134 30.0391C180.402 32.4828 181.798 35.0526 184.251 35.779L187.011 36.5963C189.464 37.3228 192.045 35.9307 192.777 33.4871Z" fill="white"/>
<path d="M180.999 31.2532C180.999 31.2532 189.577 8.97644 182.806 7.22229C176.035 5.46814 169.057 20.3232 167.11 28.3236C165.164 36.3241 162.902 54.9337 171.624 55.6474C180.346 56.361 189.378 43.5314 190.132 34.0006C190.132 34.0006 190.554 31.331 187.806 33.5441C185.98 36.1858 175.699 57.5935 189.344 54.0854C202.988 50.5773 209.509 28.1092 209.927 26.9129C210.345 25.7166 214.131 8.48397 205.363 8.83733C205.363 8.83733 201.107 9.4864 198.246 12.8595" fill="white"/>
<path d="M180.066 30.8939C179.867 31.4093 180.124 31.988 180.64 32.1864C181.155 32.3849 181.734 32.128 181.932 31.6126L180.066 30.8939ZM190.132 34.0006L189.145 33.8446L189.139 33.883L189.136 33.9217L190.132 34.0006ZM187.806 33.5441L187.179 32.7653L187.066 32.8562L186.984 32.9754L187.806 33.5441ZM205.363 8.83733L205.322 7.83814L205.267 7.84038L205.212 7.84876L205.363 8.83733ZM180.999 31.2532C181.932 31.6126 181.932 31.6124 181.932 31.612C181.932 31.6118 181.933 31.6114 181.933 31.611C181.933 31.6102 181.933 31.609 181.934 31.6074C181.935 31.6044 181.937 31.6 181.939 31.5943C181.944 31.5828 181.95 31.5661 181.958 31.5442C181.975 31.5005 181.999 31.4363 182.03 31.3529C182.093 31.1861 182.183 30.9424 182.295 30.6324C182.519 30.0125 182.83 29.1266 183.183 28.0585C183.887 25.9253 184.758 23.0521 185.417 20.1144C186.072 17.195 186.535 14.134 186.378 11.6539C186.226 9.26172 185.442 6.87225 183.057 6.25425L182.555 8.19033C183.555 8.44941 184.238 9.50234 184.382 11.7804C184.521 13.9706 184.109 16.8077 183.466 19.6767C182.826 22.5275 181.976 25.3331 181.284 27.4316C180.938 28.4794 180.632 29.3476 180.414 29.9528C180.304 30.2553 180.217 30.492 180.157 30.6524C180.127 30.7325 180.104 30.7936 180.088 30.8343C180.081 30.8547 180.075 30.8699 180.071 30.8799C180.069 30.8849 180.068 30.8886 180.067 30.8909C180.066 30.8921 180.066 30.8929 180.066 30.8934C180.066 30.8937 180.066 30.8938 180.066 30.8939C180.066 30.8939 180.066 30.8939 180.999 31.2532ZM183.057 6.25425C180.947 5.70775 178.925 6.49202 177.157 7.86445C175.391 9.23631 173.75 11.2873 172.303 13.5816C169.406 18.1757 167.135 23.9915 166.138 28.0872L168.082 28.56C169.032 24.6553 171.223 19.0434 173.995 14.6484C175.382 12.4482 176.877 10.6142 178.384 9.44412C179.89 8.27457 181.279 7.85976 182.555 8.19033L183.057 6.25425ZM166.138 28.0872C165.151 32.1439 164.08 38.8977 164.368 44.767C164.511 47.693 164.996 50.4974 166.071 52.6489C167.167 54.8421 168.924 56.4298 171.543 56.644L171.706 54.6507C169.963 54.5081 168.733 53.502 167.86 51.7551C166.967 49.9666 166.503 47.4847 166.365 44.669C166.09 39.055 167.122 32.5038 168.082 28.56L166.138 28.0872ZM171.543 56.644C176.41 57.0423 181.138 53.6833 184.647 49.2898C188.187 44.858 190.733 39.0834 191.129 34.0795L189.136 33.9217C188.777 38.4485 186.43 43.8541 183.085 48.0415C179.709 52.2671 175.56 54.9661 171.706 54.6507L171.543 56.644ZM190.132 34.0006C191.12 34.1565 191.12 34.1561 191.12 34.1557C191.12 34.1555 191.12 34.155 191.12 34.1547C191.121 34.1541 191.121 34.1534 191.121 34.1526C191.121 34.1512 191.121 34.1495 191.122 34.1477C191.122 34.144 191.123 34.1397 191.123 34.1347C191.125 34.1248 191.127 34.1122 191.128 34.0972C191.132 34.0673 191.137 34.0274 191.141 33.9795C191.15 33.885 191.158 33.7532 191.155 33.6022C191.151 33.341 191.116 32.8528 190.854 32.4221C190.709 32.1848 190.484 31.9471 190.154 31.8012C189.826 31.6564 189.48 31.6399 189.156 31.6968C188.552 31.8028 187.901 32.184 187.179 32.7653L188.433 34.3229C189.086 33.7976 189.411 33.6826 189.502 33.6667C189.525 33.6627 189.455 33.6789 189.346 33.6307C189.234 33.5816 189.171 33.5047 189.146 33.4628C189.121 33.4228 189.153 33.4637 189.155 33.6339C189.156 33.6986 189.153 33.7581 189.149 33.8009C189.147 33.8217 189.145 33.837 189.144 33.8451C189.144 33.8491 189.144 33.8512 189.144 33.8512C189.144 33.8513 189.144 33.8507 189.144 33.8496C189.144 33.8491 189.144 33.8484 189.144 33.8476C189.144 33.8472 189.144 33.8467 189.144 33.8462C189.144 33.846 189.145 33.8456 189.145 33.8455C189.145 33.8451 189.145 33.8446 190.132 34.0006ZM186.984 32.9754C186.47 33.7178 185.454 35.6232 184.439 37.9637C183.418 40.3196 182.36 43.2028 181.794 45.9169C181.511 47.2743 181.345 48.6194 181.38 49.8523C181.414 51.078 181.649 52.2622 182.231 53.2391C182.832 54.248 183.766 54.97 185.043 55.2886C186.284 55.5983 187.797 55.5155 189.593 55.0539L189.095 53.1169C187.479 53.5323 186.328 53.548 185.527 53.3481C184.762 53.1571 184.275 52.7616 183.949 52.2155C183.605 51.6375 183.408 50.8294 183.379 49.7961C183.35 48.77 183.489 47.5894 183.752 46.325C184.279 43.7955 185.281 41.0506 186.274 38.7593C187.275 36.4525 188.229 34.6912 188.629 34.1128L186.984 32.9754ZM189.593 55.0539C196.848 53.1886 202.065 46.353 205.473 40.1115C208.911 33.8154 210.677 27.7986 210.871 27.2428L208.983 26.5831C208.759 27.2235 207.056 33.039 203.718 39.153C200.349 45.3216 195.484 51.4742 189.095 53.1169L189.593 55.0539ZM210.871 27.2428C211.007 26.8528 211.333 25.4756 211.611 23.688C211.893 21.8756 212.14 19.5577 212.089 17.272C212.04 15.0115 211.698 12.659 210.71 10.8624C210.208 9.94929 209.524 9.15443 208.607 8.60539C207.685 8.05348 206.587 7.78716 205.322 7.83814L205.403 9.83652C206.33 9.79916 207.033 9.99406 207.58 10.3216C208.132 10.652 208.588 11.1548 208.958 11.8263C209.713 13.1988 210.043 15.163 210.09 17.316C210.137 19.4438 209.906 21.6363 209.635 23.3804C209.36 25.1494 209.055 26.3749 208.983 26.5831L210.871 27.2428ZM205.363 8.83733C205.212 7.84876 205.212 7.84881 205.211 7.84887C205.211 7.84889 205.211 7.84895 205.21 7.84899C205.21 7.84908 205.209 7.84918 205.208 7.84928C205.207 7.8495 205.205 7.84976 205.204 7.85006C205.2 7.85066 205.195 7.85144 205.189 7.8524C205.177 7.85432 205.161 7.85697 205.142 7.86041C205.102 7.8673 205.048 7.87737 204.979 7.89114C204.841 7.91868 204.646 7.96111 204.405 8.02268C203.925 8.14563 203.258 8.34594 202.497 8.65849C200.982 9.2808 199.05 10.366 197.483 12.2126L199.008 13.5063C200.303 11.9799 201.929 11.054 203.257 10.5085C203.918 10.2372 204.494 10.0644 204.901 9.96022C205.104 9.90823 205.264 9.87361 205.37 9.85247C205.423 9.84191 205.462 9.83474 205.487 9.83047C205.499 9.82833 205.507 9.82693 205.512 9.82618C205.514 9.82581 205.515 9.82561 205.516 9.82556C205.516 9.82554 205.516 9.82556 205.515 9.82561C205.515 9.82564 205.515 9.82568 205.515 9.82573C205.514 9.82575 205.514 9.82579 205.514 9.8258C205.514 9.82585 205.513 9.8259 205.363 8.83733Z" fill="black"/>
<path d="M195.158 36.3244C194.93 36.8274 195.152 37.4201 195.655 37.6482C196.158 37.8763 196.751 37.6534 196.979 37.1505L195.158 36.3244ZM185.136 14.7452C185.91 15.3786 185.91 15.3787 185.91 15.3788C185.91 15.3788 185.91 15.3789 185.91 15.3789C185.91 15.379 185.91 15.3789 185.91 15.3787C185.91 15.3783 185.911 15.3775 185.912 15.3763C185.914 15.3739 185.917 15.3699 185.922 15.3643C185.931 15.3531 185.946 15.3357 185.965 15.3125C186.004 15.266 186.064 15.1965 186.141 15.1075C186.297 14.9293 186.525 14.6739 186.812 14.3703C187.389 13.761 188.194 12.9671 189.116 12.2156C190.044 11.4594 191.056 10.7751 192.045 10.3541C193.042 9.93012 193.91 9.81717 194.626 10.036L195.211 8.12351C193.869 7.71295 192.486 7.99349 191.263 8.51372C190.032 9.037 188.856 9.84773 187.853 10.6652C186.844 11.4875 185.974 12.346 185.36 12.9956C185.051 13.3215 184.805 13.5971 184.634 13.7928C184.549 13.8906 184.482 13.9686 184.436 14.023C184.414 14.0502 184.396 14.0715 184.383 14.0864C184.377 14.0939 184.372 14.0998 184.369 14.104C184.367 14.1062 184.366 14.1079 184.365 14.1092C184.364 14.1098 184.364 14.1104 184.363 14.1108C184.363 14.111 184.363 14.1113 184.363 14.1114C184.363 14.1116 184.362 14.1118 185.136 14.7452ZM194.626 10.036C196.19 10.5147 197.523 12.285 198.362 14.9745C199.181 17.6011 199.428 20.8074 199.062 23.6199L201.045 23.878C201.446 20.7977 201.182 17.2988 200.271 14.3787C199.379 11.5215 197.76 8.90362 195.211 8.12351L194.626 10.036ZM199.062 23.6199C198.692 26.4602 197.724 29.6281 196.832 32.1154C196.388 33.3525 195.968 34.4084 195.659 35.154C195.505 35.5266 195.379 35.8213 195.291 36.0218C195.248 36.1221 195.214 36.1988 195.191 36.2499C195.18 36.2755 195.171 36.2946 195.165 36.3071C195.163 36.3134 195.161 36.318 195.159 36.3209C195.159 36.3223 195.158 36.3233 195.158 36.3239C195.158 36.3242 195.158 36.3244 195.158 36.3245C195.158 36.3245 195.158 36.3245 195.158 36.3245C195.158 36.3245 195.158 36.3244 196.068 36.7374C196.979 37.1505 196.979 37.1503 196.979 37.1502C196.979 37.1501 196.979 37.1499 196.979 37.1498C196.98 37.1494 196.98 37.1489 196.98 37.1484C196.981 37.1473 196.981 37.1457 196.982 37.1437C196.984 37.1397 196.987 37.1341 196.99 37.1267C196.996 37.112 197.006 37.0906 197.018 37.0627C197.043 37.007 197.079 36.9255 197.125 36.8203C197.217 36.6097 197.348 36.304 197.507 35.9193C197.826 35.1504 198.258 34.064 198.715 32.7906C199.623 30.2568 200.648 26.9305 201.045 23.878L199.062 23.6199Z" fill="black"/>
</g>
<g filter="url(#filter0_d_3014_2720)">
<path d="M260.103 12.5074C251.219 18.7289 247.45 38.772 251.219 41.4907C250.156 41.7928 246.127 43.0759 240.297 47.7122C234.763 52.1128 234.496 57.4954 235.269 59.4086C235.752 60.4155 238.317 62.4371 244.811 63.6454C252.929 65.1558 263.255 58.2428 269.86 50.5953C277.725 41.4907 289.084 13.8731 280.346 11.5969C272.924 9.66359 266.097 20.641 263.681 26.1792C263.874 24.7695 264.639 22.7913 265.055 19.1842C265.631 14.1766 262.422 11.2991 260.103 12.5074Z" fill="white"/>
<path d="M260.103 12.5074C251.219 18.7289 247.45 38.772 251.219 41.4907C250.156 41.7928 246.127 43.0759 240.297 47.7122C234.763 52.1128 234.496 57.4954 235.269 59.4086C235.752 60.4155 238.317 62.4371 244.811 63.6454C252.929 65.1558 263.255 58.2428 269.86 50.5953C277.725 41.4907 289.084 13.8731 280.346 11.5969C272.924 9.66359 266.097 20.641 263.681 26.1792C263.874 24.7695 264.639 22.7913 265.055 19.1842C265.631 14.1766 262.422 11.2991 260.103 12.5074Z" stroke="#B4B4B4" stroke-width="0.2"/>
<path d="M260.103 12.5074C251.219 18.7289 247.45 38.772 251.219 41.4907C250.156 41.7928 246.127 43.0759 240.297 47.7122C234.763 52.1128 234.496 57.4954 235.269 59.4086C235.752 60.4155 238.317 62.4371 244.811 63.6454C252.929 65.1558 263.255 58.2428 269.86 50.5953C277.725 41.4907 289.084 13.8731 280.346 11.5969C272.924 9.66359 266.097 20.641 263.681 26.1792C263.874 24.7695 264.639 22.7913 265.055 19.1842C265.631 14.1766 262.422 11.2991 260.103 12.5074Z" stroke="white" stroke-width="0.2"/>
</g>
<path d="M251.446 41.4888C249.813 40.7678 247.739 36.2174 252.508 23.783C257.277 11.3485 261.16 11.8149 262.652 12.5259C265.418 13.492 265.726 20.8934 263.851 25.3376M251.446 41.4888C236.466 46.9103 233.538 55.6109 235.234 59.1659C237.08 63.0368 248.671 66.6717 259.29 59.8594C269.91 53.0472 273.733 44.8756 276.022 41.2856C278.31 37.6957 281.679 29.0714 282.279 26.0594C282.879 23.0474 285.335 12.8542 280.659 11.5789C278.692 11.0423 274.957 10.6529 269.417 17.1607C266.557 20.5204 263.464 25.463 262.652 28.5M251.446 41.4888C253.732 40.6807 258 40 262 40" stroke="black" stroke-width="2" stroke-linecap="round" stroke-linejoin="round"/>
<defs>
<filter id="filter0_d_3014_2720" x="230.85" y="11.2712" width="56.7512" height="60.6833" filterUnits="userSpaceOnUse" color-interpolation-filters="sRGB">
<feFlood flood-opacity="0" result="BackgroundImageFix"/>
<feColorMatrix in="SourceAlpha" type="matrix" values="0 0 0 0 0 0 0 0 0 0 0 0 0 0 0 0 0 0 127 0" result="hardAlpha"/>
<feOffset dy="4"/>
<feGaussianBlur stdDeviation="2"/>
<feComposite in2="hardAlpha" operator="out"/>
<feColorMatrix type="matrix" values="0 0 0 0 0 0 0 0 0 0 0 0 0 0 0 0 0 0 0.25 0"/>
<feBlend mode="normal" in2="BackgroundImageFix" result="effect1_dropShadow_3014_2720"/>
<feBlend mode="normal" in="SourceGraphic" in2="effect1_dropShadow_3014_2720" result="shape"/>
</filter>
<clipPath id="clip0_3014_2720">
<rect width="51.5974" height="49.7869" fill="white" transform="translate(159.402 8.33862) rotate(-5.97871)"/>
</clipPath>
</defs>
</svg>
