<svg width="299" height="73" viewBox="0 0 299 73" fill="none" xmlns="http://www.w3.org/2000/svg">
<path d="M108.232 38.4765C108.232 38.4765 108.767 59.5202 96.9698 58.4648C85.1728 57.4093 89.3365 42.0543 91.5835 32.0786C93.8306 22.103 95.0843 4.88876 104.866 6.62513C112.997 8.06858 110.625 17.6381 109.593 20.8258C109.556 20.9416 109.764 21.0496 109.832 20.9491C112.324 17.3065 122.021 4.19235 129.222 9.40358C136.888 14.9532 127.015 27.3631 119.811 28.9633C119.58 29.0314 119.427 28.772 119.627 28.9084C122.891 31.1331 122.894 30.7513 125.62 33.7469C129.888 38.4374 131.898 48.0125 125.454 52.9152C119.011 57.8179 111.245 51.0426 109.725 44.744C108.205 38.4454 108.232 38.4765 108.232 38.4765Z" fill="white" stroke="black" stroke-width="2" stroke-miterlimit="10"/>
<path d="M166.223 34.1191C167.386 34.6975 168.41 35.4809 169.215 36.5136C169.229 36.5319 169.243 36.5527 169.253 36.5732C177.912 53.0738 161.059 57.5307 147.504 55.5485C147.504 55.5485 130.871 54.8985 129.853 43.7807C129.181 36.453 133.449 32.889 135.972 31.428C136.167 31.3149 136.064 30.8512 135.841 30.8132C133.247 30.3702 129.073 28.0764 129.073 23.3787C129.073 17.2276 136.189 11.3437 142.58 9.67493C145.548 8.90012 149.102 8.69985 150.033 8.6895C154.646 8.63824 158.95 9.24426 161.556 12.5522C163.893 15.5189 163.804 21.3067 158.308 23.6583C162.911 23.1713 166.518 24.5514 167.754 27.9239C168.743 30.6225 167.955 32.641 166.223 34.1191Z" fill="white"/>
<path d="M153.644 24.6582C163.636 24.1064 164.428 16.1984 161.556 12.5522C158.95 9.24426 154.646 8.63824 150.033 8.6895C149.102 8.69985 145.548 8.90012 142.58 9.67493C136.189 11.3437 129.073 17.2276 129.073 23.3787C129.073 28.0764 133.247 30.3702 135.841 30.8132C136.064 30.8512 136.167 31.3149 135.972 31.428C133.449 32.889 129.181 36.453 129.853 43.7807C130.871 54.8985 147.504 55.5485 147.504 55.5485C161.059 57.5307 177.912 53.0738 169.253 36.5732C169.243 36.5527 169.229 36.5319 169.215 36.5136C164.382 30.3121 151.639 33.1025 148.381 35.272C146.637 36.4336 147.975 37.0278 147.975 37.0278C150.766 38.5819 171.411 37.9025 167.754 27.9239C166.518 24.5514 162.911 23.1713 158.308 23.6583" stroke="black" stroke-width="2" stroke-miterlimit="10" stroke-linecap="round"/>
<path d="M64.6772 20.3958C64.7751 20.5934 64.6282 20.8274 64.4078 20.821C61.6621 20.7414 48.3076 20.9937 47.402 33.3747C46.3923 47.1798 58.0465 54.5289 62.8621 55.2452C68.1425 57.6591 80.6647 55.2452 81.7208 47.2491C81.7208 47.2491 87.9574 51.4195 90.5205 51.1076C95.3251 50.5185 97.056 39.7747 88.5455 24.9414C80.035 10.1081 71.1366 7.62833 66.3321 10.1352C61.0517 14.0578 64.6772 20.3958 64.6772 20.3958Z" fill="white" stroke="black" stroke-width="2" stroke-miterlimit="10"/>
<path d="M60.1511 33.3707C60.1511 33.3707 66.9295 38.2185 68.9016 42.7246L60.1511 33.3707Z" fill="white"/>
<path d="M60.1511 33.3707C60.1511 33.3707 66.9295 38.2185 68.9016 42.7246" stroke="black" stroke-width="2" stroke-miterlimit="10" stroke-linecap="round"/>
<path d="M222.323 20.9479C222.421 21.1454 222.274 21.3795 222.053 21.3731C219.308 21.2934 205.953 21.5457 205.048 33.9267C204.038 47.7319 215.692 55.081 220.508 55.7973C225.788 58.2112 238.31 55.7973 239.366 47.8012C239.366 47.8012 245.603 51.9716 248.166 51.6597C252.971 51.0705 254.702 40.3268 246.191 25.4935C237.68 10.6602 228.782 8.1804 223.978 10.6873C218.697 14.6099 222.323 20.9479 222.323 20.9479Z" fill="white" stroke="black" stroke-width="2" stroke-miterlimit="10"/>
<path d="M217.797 33.9227C217.797 33.9227 224.575 38.7705 226.547 43.2766L217.797 33.9227Z" fill="white"/>
<path d="M217.797 33.9227C217.797 33.9227 224.575 38.7705 226.547 43.2766" stroke="black" stroke-width="2" stroke-miterlimit="10" stroke-linecap="round"/>
<path d="M32.3582 33.2489C28.6267 36.0515 26.5072 39.2547 26.5072 39.2547C22.5427 46.0768 26.5066 47.0856 27.5633 46.3456C28.62 45.6056 29.75 43.3561 29.072 38.1986C28.3459 32.6751 26.0357 28.3159 24.0409 25.2108C23.9783 25.1213 24.0021 25.1026 24.0409 25.2108C26.0398 28.2571 32.4886 38.5284 45.7042 30.9417C48.9176 28.6334 49.5729 26.1926 50.3337 23.5704C51.2102 20.5609 50.9292 17.0384 47.999 12.7983C42.1479 5.17336 33.954 4.0535 26.9077 7.38368C19.8614 10.7139 12.3387 19.1069 11.9684 32.6751C11.5981 46.2432 16.8659 55.9963 26.1753 57.6653C34.1144 58.6278 42.886 51.7442 46.208 43.993C46.208 43.993 49.1655 38.549 43.5984 32.9376" fill="white"/>
<path d="M32.3582 33.2489C28.6267 36.0515 26.5072 39.2547 26.5072 39.2547C22.5427 46.0768 26.5066 47.0856 27.5633 46.3456C28.62 45.6056 29.75 43.3561 29.072 38.1986C28.3459 32.6751 26.0357 28.3159 24.0409 25.2108M24.0409 25.2108C24.0021 25.1026 23.9783 25.1213 24.0409 25.2108ZM24.0409 25.2108C26.0398 28.2571 32.4886 38.5284 45.7042 30.9417C48.9176 28.6334 49.5729 26.1926 50.3337 23.5704C51.2102 20.5609 50.9292 17.0384 47.999 12.7983C42.1479 5.17336 33.954 4.0535 26.9077 7.38368C19.8614 10.7139 12.3387 19.1069 11.9684 32.6751C11.5981 46.2432 16.8659 55.9963 26.1753 57.6653C34.1144 58.6278 42.886 51.7442 46.208 43.993C46.208 43.993 49.1655 38.549 43.5984 32.9376" stroke="black" stroke-width="2" stroke-miterlimit="10"/>
<g clip-path="url(#clip0_1791_14090)">
<path d="M195.777 34.4871L200.998 17.0467C201.658 12.4144 198.181 10.444 196.36 10.0378C193.907 9.31136 189.151 12.977 188.42 15.4206L184.134 31.0391C183.402 33.4828 184.798 36.0526 187.251 36.779L190.011 37.5963C192.464 38.3228 195.045 36.9307 195.777 34.4871Z" fill="white"/>
<path d="M183.999 32.2532C183.999 32.2532 192.577 9.97644 185.806 8.22229C179.035 6.46814 172.057 21.3232 170.11 29.3236C168.164 37.3241 165.902 55.9337 174.624 56.6474C183.346 57.361 192.378 44.5314 193.132 35.0006C193.132 35.0006 193.554 32.331 190.806 34.5441C188.98 37.1858 178.699 58.5935 192.344 55.0854C205.988 51.5773 212.509 29.1092 212.927 27.9129C213.345 26.7166 217.131 9.48397 208.363 9.83733C208.363 9.83733 204.107 10.4864 201.246 13.8595" fill="white"/>
<path d="M183.066 31.8939C182.867 32.4093 183.124 32.988 183.64 33.1864C184.155 33.3849 184.734 33.128 184.932 32.6126L183.066 31.8939ZM193.132 35.0006L192.145 34.8446L192.139 34.883L192.136 34.9217L193.132 35.0006ZM190.806 34.5441L190.179 33.7653L190.066 33.8562L189.984 33.9754L190.806 34.5441ZM208.363 9.83733L208.322 8.83814L208.267 8.84038L208.212 8.84876L208.363 9.83733ZM183.999 32.2532C184.932 32.6126 184.932 32.6124 184.932 32.612C184.932 32.6118 184.933 32.6114 184.933 32.611C184.933 32.6102 184.933 32.609 184.934 32.6074C184.935 32.6044 184.937 32.6 184.939 32.5943C184.944 32.5828 184.95 32.5661 184.958 32.5442C184.975 32.5005 184.999 32.4363 185.03 32.3529C185.093 32.1861 185.183 31.9424 185.295 31.6324C185.519 31.0125 185.83 30.1266 186.183 29.0585C186.887 26.9253 187.758 24.0521 188.417 21.1144C189.072 18.195 189.535 15.134 189.378 12.6539C189.226 10.2617 188.442 7.87225 186.057 7.25425L185.555 9.19033C186.555 9.44941 187.238 10.5023 187.382 12.7804C187.521 14.9706 187.109 17.8077 186.466 20.6767C185.826 23.5275 184.976 26.3331 184.284 28.4316C183.938 29.4794 183.632 30.3476 183.414 30.9528C183.304 31.2553 183.217 31.492 183.157 31.6524C183.127 31.7325 183.104 31.7936 183.088 31.8343C183.081 31.8547 183.075 31.8699 183.071 31.8799C183.069 31.8849 183.068 31.8886 183.067 31.8909C183.066 31.8921 183.066 31.8929 183.066 31.8934C183.066 31.8937 183.066 31.8938 183.066 31.8939C183.066 31.8939 183.066 31.8939 183.999 32.2532ZM186.057 7.25425C183.947 6.70775 181.925 7.49202 180.157 8.86445C178.391 10.2363 176.75 12.2873 175.303 14.5816C172.406 19.1757 170.135 24.9915 169.138 29.0872L171.082 29.56C172.032 25.6553 174.223 20.0434 176.995 15.6484C178.382 13.4482 179.877 11.6142 181.384 10.4441C182.89 9.27457 184.279 8.85976 185.555 9.19033L186.057 7.25425ZM169.138 29.0872C168.151 33.1439 167.08 39.8977 167.368 45.767C167.511 48.693 167.996 51.4974 169.071 53.6489C170.167 55.8421 171.924 57.4298 174.543 57.644L174.706 55.6507C172.963 55.5081 171.733 54.502 170.86 52.7551C169.967 50.9666 169.503 48.4847 169.365 45.669C169.09 40.055 170.122 33.5038 171.082 29.56L169.138 29.0872ZM174.543 57.644C179.41 58.0423 184.138 54.6833 187.647 50.2898C191.187 45.858 193.733 40.0834 194.129 35.0795L192.136 34.9217C191.777 39.4485 189.43 44.8541 186.085 49.0415C182.709 53.2671 178.56 55.9661 174.706 55.6507L174.543 57.644ZM193.132 35.0006C194.12 35.1565 194.12 35.1561 194.12 35.1557C194.12 35.1555 194.12 35.155 194.12 35.1547C194.121 35.1541 194.121 35.1534 194.121 35.1526C194.121 35.1512 194.121 35.1495 194.122 35.1477C194.122 35.144 194.123 35.1397 194.123 35.1347C194.125 35.1248 194.127 35.1122 194.128 35.0972C194.132 35.0673 194.137 35.0274 194.141 34.9795C194.15 34.885 194.158 34.7532 194.155 34.6022C194.151 34.341 194.116 33.8528 193.854 33.4221C193.709 33.1848 193.484 32.9471 193.154 32.8012C192.826 32.6564 192.48 32.6399 192.156 32.6968C191.552 32.8028 190.901 33.184 190.179 33.7653L191.433 35.3229C192.086 34.7976 192.411 34.6826 192.502 34.6667C192.525 34.6627 192.455 34.6789 192.346 34.6307C192.234 34.5816 192.171 34.5047 192.146 34.4628C192.121 34.4228 192.153 34.4637 192.155 34.6339C192.156 34.6986 192.153 34.7581 192.149 34.8009C192.147 34.8217 192.145 34.837 192.144 34.8451C192.144 34.8491 192.144 34.8512 192.144 34.8512C192.144 34.8513 192.144 34.8507 192.144 34.8496C192.144 34.8491 192.144 34.8484 192.144 34.8476C192.144 34.8472 192.144 34.8467 192.144 34.8462C192.144 34.846 192.145 34.8456 192.145 34.8455C192.145 34.8451 192.145 34.8446 193.132 35.0006ZM189.984 33.9754C189.47 34.7178 188.454 36.6232 187.439 38.9637C186.418 41.3196 185.36 44.2028 184.794 46.9169C184.511 48.2743 184.345 49.6194 184.38 50.8523C184.414 52.078 184.649 53.2622 185.231 54.2391C185.832 55.248 186.766 55.97 188.043 56.2886C189.284 56.5983 190.797 56.5155 192.593 56.0539L192.095 54.1169C190.479 54.5323 189.328 54.548 188.527 54.3481C187.762 54.1571 187.275 53.7616 186.949 53.2155C186.605 52.6375 186.408 51.8294 186.379 50.7961C186.35 49.77 186.489 48.5894 186.752 47.325C187.279 44.7955 188.281 42.0506 189.274 39.7593C190.275 37.4525 191.229 35.6912 191.629 35.1128L189.984 33.9754ZM192.593 56.0539C199.848 54.1886 205.065 47.353 208.473 41.1115C211.911 34.8154 213.677 28.7986 213.871 28.2428L211.983 27.5831C211.759 28.2235 210.056 34.039 206.718 40.153C203.349 46.3216 198.484 52.4742 192.095 54.1169L192.593 56.0539ZM213.871 28.2428C214.007 27.8528 214.333 26.4756 214.611 24.688C214.893 22.8756 215.14 20.5577 215.089 18.272C215.04 16.0115 214.698 13.659 213.71 11.8624C213.208 10.9493 212.524 10.1544 211.607 9.60539C210.685 9.05348 209.587 8.78716 208.322 8.83814L208.403 10.8365C209.33 10.7992 210.033 10.9941 210.58 11.3216C211.132 11.652 211.588 12.1548 211.958 12.8263C212.713 14.1988 213.043 16.163 213.09 18.316C213.137 20.4438 212.906 22.6363 212.635 24.3804C212.36 26.1494 212.055 27.3749 211.983 27.5831L213.871 28.2428ZM208.363 9.83733C208.212 8.84876 208.212 8.84881 208.211 8.84887C208.211 8.84889 208.211 8.84895 208.21 8.84899C208.21 8.84908 208.209 8.84918 208.208 8.84928C208.207 8.8495 208.205 8.84976 208.204 8.85006C208.2 8.85066 208.195 8.85144 208.189 8.8524C208.177 8.85432 208.161 8.85697 208.142 8.86041C208.102 8.8673 208.048 8.87737 207.979 8.89114C207.841 8.91868 207.646 8.96111 207.405 9.02268C206.925 9.14563 206.258 9.34594 205.497 9.65849C203.982 10.2808 202.05 11.366 200.483 13.2126L202.008 14.5063C203.303 12.9799 204.929 12.054 206.257 11.5085C206.918 11.2372 207.494 11.0644 207.901 10.9602C208.104 10.9082 208.264 10.8736 208.37 10.8525C208.423 10.8419 208.462 10.8347 208.487 10.8305C208.499 10.8283 208.507 10.8269 208.512 10.8262C208.514 10.8258 208.515 10.8256 208.516 10.8256C208.516 10.8255 208.516 10.8256 208.515 10.8256C208.515 10.8256 208.515 10.8257 208.515 10.8257C208.514 10.8258 208.514 10.8258 208.514 10.8258C208.514 10.8258 208.513 10.8259 208.363 9.83733Z" fill="black"/>
<path d="M198.158 37.3244C197.93 37.8274 198.152 38.4201 198.655 38.6482C199.158 38.8763 199.751 38.6534 199.979 38.1505L198.158 37.3244ZM188.136 15.7452C188.91 16.3786 188.91 16.3787 188.91 16.3788C188.91 16.3788 188.91 16.3789 188.91 16.3789C188.91 16.379 188.91 16.3789 188.91 16.3787C188.91 16.3783 188.911 16.3775 188.912 16.3763C188.914 16.3739 188.917 16.3699 188.922 16.3643C188.931 16.3531 188.946 16.3357 188.965 16.3125C189.004 16.266 189.064 16.1965 189.141 16.1075C189.297 15.9293 189.525 15.6739 189.812 15.3703C190.389 14.761 191.194 13.9671 192.116 13.2156C193.044 12.4594 194.056 11.7751 195.045 11.3541C196.042 10.9301 196.91 10.8172 197.626 11.036L198.211 9.12351C196.869 8.71295 195.486 8.99349 194.263 9.51372C193.032 10.037 191.856 10.8477 190.853 11.6652C189.844 12.4875 188.974 13.346 188.36 13.9956C188.051 14.3215 187.805 14.5971 187.634 14.7928C187.549 14.8906 187.482 14.9686 187.436 15.023C187.414 15.0502 187.396 15.0715 187.383 15.0864C187.377 15.0939 187.372 15.0998 187.369 15.104C187.367 15.1062 187.366 15.1079 187.365 15.1092C187.364 15.1098 187.364 15.1104 187.363 15.1108C187.363 15.111 187.363 15.1113 187.363 15.1114C187.363 15.1116 187.362 15.1118 188.136 15.7452ZM197.626 11.036C199.19 11.5147 200.523 13.285 201.362 15.9745C202.181 18.6011 202.428 21.8074 202.062 24.6199L204.045 24.878C204.446 21.7977 204.182 18.2988 203.271 15.3787C202.379 12.5215 200.76 9.90362 198.211 9.12351L197.626 11.036ZM202.062 24.6199C201.692 27.4602 200.724 30.6281 199.832 33.1154C199.388 34.3525 198.968 35.4084 198.659 36.154C198.505 36.5266 198.379 36.8213 198.291 37.0218C198.248 37.1221 198.214 37.1988 198.191 37.2499C198.18 37.2755 198.171 37.2946 198.165 37.3071C198.163 37.3134 198.161 37.318 198.159 37.3209C198.159 37.3223 198.158 37.3233 198.158 37.3239C198.158 37.3242 198.158 37.3244 198.158 37.3245C198.158 37.3245 198.158 37.3245 198.158 37.3245C198.158 37.3245 198.158 37.3244 199.068 37.7374C199.979 38.1505 199.979 38.1503 199.979 38.1502C199.979 38.1501 199.979 38.1499 199.979 38.1498C199.98 38.1494 199.98 38.1489 199.98 38.1484C199.981 38.1473 199.981 38.1457 199.982 38.1437C199.984 38.1397 199.987 38.1341 199.99 38.1267C199.996 38.112 200.006 38.0906 200.018 38.0627C200.043 38.007 200.079 37.9255 200.125 37.8203C200.217 37.6097 200.348 37.304 200.507 36.9193C200.826 36.1504 201.258 35.064 201.715 33.7906C202.623 31.2568 203.648 27.9305 204.045 24.878L202.062 24.6199Z" fill="black"/>
</g>
<g filter="url(#filter0_d_1791_14090)">
<path d="M263.103 13.5074C254.219 19.7289 250.451 39.772 254.219 42.4907C253.156 42.7928 249.127 44.0759 243.297 48.7122C237.763 53.1128 237.496 58.4954 238.269 60.4086C238.752 61.4155 241.317 63.4371 247.812 64.6454C255.929 66.1558 266.255 59.2428 272.861 51.5953C280.725 42.4907 292.084 14.8731 283.346 12.5969C275.924 10.6636 269.097 21.641 266.681 27.1792C266.874 25.7695 267.639 23.7913 268.055 20.1842C268.631 15.1766 265.422 12.2991 263.103 13.5074Z" fill="white"/>
<path d="M263.103 13.5074C254.219 19.7289 250.451 39.772 254.219 42.4907C253.156 42.7928 249.127 44.0759 243.297 48.7122C237.763 53.1128 237.496 58.4954 238.269 60.4086C238.752 61.4155 241.317 63.4371 247.812 64.6454C255.929 66.1558 266.255 59.2428 272.861 51.5953C280.725 42.4907 292.084 14.8731 283.346 12.5969C275.924 10.6636 269.097 21.641 266.681 27.1792C266.874 25.7695 267.639 23.7913 268.055 20.1842C268.631 15.1766 265.422 12.2991 263.103 13.5074Z" stroke="#B4B4B4" stroke-width="0.2"/>
<path d="M263.103 13.5074C254.219 19.7289 250.451 39.772 254.219 42.4907C253.156 42.7928 249.127 44.0759 243.297 48.7122C237.763 53.1128 237.496 58.4954 238.269 60.4086C238.752 61.4155 241.317 63.4371 247.812 64.6454C255.929 66.1558 266.255 59.2428 272.861 51.5953C280.725 42.4907 292.084 14.8731 283.346 12.5969C275.924 10.6636 269.097 21.641 266.681 27.1792C266.874 25.7695 267.639 23.7913 268.055 20.1842C268.631 15.1766 265.422 12.2991 263.103 13.5074Z" stroke="white" stroke-width="0.2"/>
</g>
<path d="M254.446 42.4888C252.813 41.7678 250.74 37.2174 255.509 24.783C260.278 12.3485 264.16 12.8149 265.652 13.5259C268.418 14.492 268.726 21.8934 266.851 26.3376M254.446 42.4888C239.467 47.9103 236.538 56.6109 238.234 60.1659C240.08 64.0368 251.671 67.6717 262.29 60.8594C272.91 54.0472 276.733 45.8756 279.022 42.2856C281.31 38.6957 284.679 30.0714 285.279 27.0594C285.88 24.0474 288.335 13.8542 283.659 12.5789C281.692 12.0423 277.957 11.6529 272.417 18.1607C269.557 21.5204 266.464 26.463 265.652 29.5M254.446 42.4888C256.732 41.6807 261 41 265 41" stroke="black" stroke-width="2" stroke-linecap="round" stroke-linejoin="round"/>
<defs>
<filter id="filter0_d_1791_14090" x="233.85" y="12.2712" width="56.7512" height="60.6833" filterUnits="userSpaceOnUse" color-interpolation-filters="sRGB">
<feFlood flood-opacity="0" result="BackgroundImageFix"/>
<feColorMatrix in="SourceAlpha" type="matrix" values="0 0 0 0 0 0 0 0 0 0 0 0 0 0 0 0 0 0 127 0" result="hardAlpha"/>
<feOffset dy="4"/>
<feGaussianBlur stdDeviation="2"/>
<feComposite in2="hardAlpha" operator="out"/>
<feColorMatrix type="matrix" values="0 0 0 0 0 0 0 0 0 0 0 0 0 0 0 0 0 0 0.25 0"/>
<feBlend mode="normal" in2="BackgroundImageFix" result="effect1_dropShadow_1791_14090"/>
<feBlend mode="normal" in="SourceGraphic" in2="effect1_dropShadow_1791_14090" result="shape"/>
</filter>
<clipPath id="clip0_1791_14090">
<rect width="51.5974" height="49.7869" fill="white" transform="translate(162.402 9.33862) rotate(-5.97871)"/>
</clipPath>
</defs>
</svg>
