<svg width="36" height="36" viewBox="0 0 36 36" fill="none" xmlns="http://www.w3.org/2000/svg">
<rect x="5" y="4.52966" width="24.4706" height="24.4706" fill="#DCDA75"/>
<rect x="6.52936" y="6.05872" width="24.4706" height="24.4706" fill="#FF6C81"/>
<rect x="6.52936" y="6.05872" width="24.4706" height="6.11765" fill="white"/>
<rect x="8.05878" y="3" width="1.52941" height="4.58824" fill="#F54343"/>
<rect x="27.9412" y="3" width="1.52941" height="4.58824" fill="#F54343"/>
<path d="M16.6758 15.5107V23.9951H14.4375V17.5732H14.3906L12.5156 18.6982V16.7881L14.6133 15.5107H16.6758ZM18.3016 23.9951V22.3896L21.4539 19.7412C22.0985 19.1904 22.4969 18.792 22.4969 18.1826C22.4969 17.5264 22.0282 17.1162 21.3719 17.1162C20.7157 17.1162 20.2703 17.5264 20.2703 18.2529H18.1493C18.1493 16.4834 19.4266 15.3936 21.3719 15.3936C23.3758 15.3936 24.6649 16.4248 24.6649 17.9951C24.6649 18.9795 24.1727 19.8115 22.2625 21.417L21.4071 22.1553V22.2021H24.7586V23.9951H18.3016Z" fill="black"/>
</svg>
