<svg width="29" height="29" viewBox="0 0 29 29" fill="none" xmlns="http://www.w3.org/2000/svg">
<rect width="27" height="29" transform="translate(1)" fill="white"/>
<path d="M7.85685 14.5327L0.186612 2.13315L15.5271 2.13315L7.85685 14.5327Z" fill="#FFA9B6"/>
<rect x="10.8096" y="23.98" width="5.90455" height="1.18091" transform="rotate(180 10.8096 23.98)" fill="#FA2840"/>
<path d="M7.85804 14.5322L13.1721 5.08488C13.1721 5.08488 11.5196 4.91933 10.2199 5.08504C8.4485 5.08504 6.97667 5.67533 6.08668 5.67533C3.99862 5.67533 2.54395 5.08488 2.54395 5.08488L7.85804 14.5322Z" fill="#FA2840"/>
<rect x="7.2666" y="22.7988" width="9.44729" height="1.18091" transform="rotate(-90 7.2666 22.7988)" fill="#FA2840"/>
<path d="M23.2087 18.0285L13.778 6.90896L28.9475 4.62522L23.2087 18.0285Z" fill="#FFA9B6"/>
<rect x="27.5352" y="26.9312" width="5.90455" height="1.18091" transform="rotate(171.439 27.5352 26.9312)" fill="#FA2840"/>
<path d="M23.2085 18.0283L27.0569 7.89514C27.0569 7.89514 25.3982 7.97745 24.1376 8.33481C22.3859 8.59851 21.0184 9.40134 20.1383 9.53383C18.0735 9.84468 16.5472 9.47737 16.5472 9.47737L23.2085 18.0283Z" fill="#FA2840"/>
<rect x="23.8555" y="26.291" width="9.44729" height="1.18091" transform="rotate(-98.5615 23.8555 26.291)" fill="#FA2840"/>
</svg>
