<svg width="30" height="31" viewBox="0 0 30 31" fill="none" xmlns="http://www.w3.org/2000/svg">
<g id="_&#235;&#160;&#136;&#236;&#157;&#180;&#236;&#150;&#180;_1" clip-path="url(#clip0_1644_8361)">
<path id="Vector" d="M20.1952 3.90632L18.6227 3.24331C17.2249 2.654 15.6211 3.3262 15.0404 4.74472L10.8959 14.8689C10.3152 16.2874 10.9776 17.9151 12.3754 18.5044L13.9479 19.1674C15.3457 19.7567 16.9495 19.0845 17.5302 17.666L21.6747 7.54181C22.2554 6.1233 21.593 4.49563 20.1952 3.90632Z" fill="#171717"/>
<g id="Vector_2">
<path d="M10.7359 15.5943C10.7359 15.5943 17.1483 2.822 13.2769 1.35035C9.40548 -0.121297 4.38996 8.31705 2.75359 12.975C1.11723 17.633 -1.35727 28.6096 3.72477 29.5817C8.80681 30.5538 13.8888 27.1244 16.3101 17.6735C16.3101 17.6735 16.962 15.6078 15.8844 16.0668C14.8068 16.5259 5.99971 30.9993 14.2347 29.7572C22.4698 28.5151 27.6849 15.4998 28.0041 14.8112C28.3234 14.1226 31.6095 4.06412 26.4343 3.72659C26.4343 3.72659 23.8933 3.8481 22.0041 5.68428" fill="#171717"/>
<path d="M10.7359 15.5943C10.7359 15.5943 17.1483 2.822 13.2769 1.35035C9.40548 -0.121297 4.38995 8.31705 2.75359 12.975C1.11723 17.633 -1.35727 28.6096 3.72477 29.5817C8.80681 30.5538 13.8888 27.1244 16.3101 17.6735C16.3101 17.6735 16.962 15.6078 15.8844 16.0668C14.8068 16.5259 5.99971 30.9993 14.2347 29.7572C22.4698 28.5151 27.6849 15.4998 28.0041 14.8112C28.3234 14.1226 31.6095 4.06412 26.4343 3.72659C26.4343 3.72659 23.8933 3.8481 22.0041 5.68428" stroke="#FAFAFA" stroke-width="1.15456" stroke-miterlimit="10"/>
</g>
<path id="Vector_3" d="M14.3408 5.67091C14.3408 5.67091 17.241 2.16056 19.7288 3.17316C22.2167 4.18576 22.8419 8.80322 21.9772 12.2866C21.1124 15.7699 18.6379 19.8203 18.6379 19.8203" stroke="#FAFAFA" stroke-width="1.15456" stroke-miterlimit="10"/>
</g>
<defs>
<clipPath id="clip0_1644_8361">
<rect width="30" height="30" fill="white" transform="translate(0 0.5)"/>
</clipPath>
</defs>
</svg>
