<svg xmlns="http://www.w3.org/2000/svg" width="16" height="18" viewBox="0 0 16 18" fill="none">
<path fill-rule="evenodd" clip-rule="evenodd" d="M3.3206 4.32092C2.25944 5.63818 1.79858 7.48602 2.40533 9.60955C3.38561 13.0404 6.54888 15.1536 7.85142 15.8915C7.99003 15.9701 8.14818 15.9701 8.28679 15.8915C9.58937 15.1536 12.7527 13.0404 13.7329 9.60957C14.3396 7.48602 13.8787 5.63817 12.8176 4.32091C11.7492 2.99468 10.0372 2.16356 8.0691 2.16356C6.10103 2.16356 4.38899 2.99468 3.3206 4.32092ZM2.28748 3.48866C3.62371 1.82994 5.72581 0.836914 8.0691 0.836914C10.4124 0.836914 12.5145 1.82994 13.8507 3.48866C15.1941 5.15636 15.7283 7.45428 15.0085 9.974C13.8751 13.9413 10.2937 16.2794 8.9407 17.0458C8.39643 17.3542 7.74177 17.3542 7.19751 17.0458C5.84449 16.2793 2.26327 13.9413 1.12973 9.97402C0.409773 7.45429 0.944018 5.15635 2.28748 3.48866Z" fill="#FA2840"/>
<path fill-rule="evenodd" clip-rule="evenodd" d="M8.06846 9.46017C8.61798 9.46017 9.06345 9.0147 9.06345 8.46519C9.06345 7.91567 8.61798 7.4702 8.06846 7.4702C7.51894 7.4702 7.07347 7.91567 7.07347 8.46519C7.07347 9.0147 7.51894 9.46017 8.06846 9.46017ZM8.06846 10.7868C9.35066 10.7868 10.3901 9.74739 10.3901 8.46519C10.3901 7.18299 9.35066 6.14355 8.06846 6.14355C6.78626 6.14355 5.74683 7.18299 5.74683 8.46519C5.74683 9.74739 6.78626 10.7868 8.06846 10.7868Z" fill="#FA2840"/>
</svg>