<svg xmlns="http://www.w3.org/2000/svg" width="56" height="56" viewBox="0 0 56 56" fill="none">
  <path d="M28.0003 4.65771C37.4501 4.65771 45.166 12.1121 45.4905 21.5722L45.5003 22.1577V31.7174L48.7203 39.0814C48.8816 39.4498 48.9646 39.8477 48.9646 40.2499C48.9646 41.8606 47.6589 43.1666 46.048 43.1666L35.0003 43.1701C35.0003 47.036 31.8664 50.1701 28.0003 50.1701C24.2724 50.1701 21.2251 47.2558 21.0122 43.5812L20.9993 43.1647L9.97504 43.1666C9.57525 43.1666 9.17972 43.0842 8.81302 42.9251C7.33555 42.2832 6.65807 40.5654 7.29983 39.0879L10.5003 31.7195V22.1575C10.5017 12.463 18.3219 4.65771 28.0003 4.65771ZM31.4994 43.1647L24.5003 43.1701C24.5003 45.103 26.0674 46.6701 28.0003 46.6701C29.8196 46.6701 31.3148 45.282 31.4842 43.507L31.4994 43.1647ZM28.0003 8.15771C20.2533 8.15771 14.0015 14.3977 14.0003 22.1577V32.4468L10.8644 39.6666H45.1562L42.0003 32.4491L42.0006 22.1877L41.9919 21.6623C41.7327 14.1175 35.5641 8.15771 28.0003 8.15771Z" fill="#B4B4B4"/>
</svg>