<svg width="30" height="31" viewBox="0 0 24 25" fill="none" xmlns="http://www.w3.org/2000/svg">
<g id="Alert / undefined">
<path id="Vector" d="M12.0001 2.49609C16.05 2.49609 19.3568 5.69084 19.4959 9.74515L19.5001 9.99609V14.0931L20.8801 17.2491C20.9492 17.407 20.9848 17.5775 20.9848 17.7499C20.9848 18.4402 20.4252 18.9999 19.7348 18.9999L15.0001 19.0014C15.0001 20.6582 13.657 22.0014 12.0001 22.0014C10.4024 22.0014 9.09645 20.7524 9.0052 19.1776L8.99966 18.9991L4.27498 18.9999C4.10364 18.9999 3.93413 18.9646 3.77697 18.8964C3.14377 18.6213 2.85342 17.8851 3.12846 17.2519L4.50011 14.094V9.99599C4.50071 5.8412 7.8522 2.49609 12.0001 2.49609ZM13.4997 18.9991L10.5001 19.0014C10.5001 19.8298 11.1717 20.5014 12.0001 20.5014C12.7798 20.5014 13.4206 19.9065 13.4932 19.1458L13.4997 18.9991ZM12.0001 3.99609C8.67995 3.99609 6.00059 6.67035 6.00011 9.99609V14.4057L4.65613 17.4999H19.3526L18.0001 14.4067L18.0002 10.009L17.9965 9.78375C17.8854 6.55027 15.2417 3.99609 12.0001 3.99609Z" fill="#171717"/>
</g>
</svg>
