<svg width="21" height="20" viewBox="0 0 21 20" fill="none" xmlns="http://www.w3.org/2000/svg">
<g id="Icon">
<path id="Vector" d="M10.5 1.66669C10.8164 1.66669 11.0779 1.90181 11.1193 2.20688L11.125 2.29169L11.1242 3.78145C14.0773 4.073 16.427 6.42268 16.7193 9.3771L16.75 9.37502H18.2083C18.5535 9.37502 18.8333 9.65485 18.8333 10C18.8333 10.3164 18.5982 10.5779 18.2932 10.6194L18.2083 10.625L16.7181 10.6242C16.427 13.5774 14.0773 15.927 11.1229 16.2194L11.125 16.25V17.7084C11.125 18.0535 10.8452 18.3334 10.5 18.3334C10.1836 18.3334 9.92207 18.0982 9.88066 17.7932L9.87499 17.7084L9.87582 16.2181C6.92265 15.927 4.57296 13.5774 4.28064 10.6229L4.24999 10.625H2.79166C2.44648 10.625 2.16666 10.3452 2.16666 10C2.16666 9.6836 2.40178 9.4221 2.70685 9.38069L2.79166 9.37502L4.28142 9.37577C4.57297 6.42268 6.92265 4.073 9.87707 3.78067L9.87499 3.75002V2.29169C9.87499 1.94651 10.1548 1.66669 10.5 1.66669ZM10.5 5.00002C7.73857 5.00002 5.49999 7.2386 5.49999 10C5.49999 12.7614 7.73857 15 10.5 15C13.2614 15 15.5 12.7614 15.5 10C15.5 7.2386 13.2614 5.00002 10.5 5.00002ZM10.5 6.66669C12.3409 6.66669 13.8333 8.15907 13.8333 10C13.8333 11.8409 12.3409 13.3334 10.5 13.3334C8.65904 13.3334 7.16666 11.8409 7.16666 10C7.16666 8.15907 8.65904 6.66669 10.5 6.66669Z" fill="#3A3A3A"/>
</g>
</svg>
