<svg width="16" height="15" viewBox="0 0 16 15" fill="none" xmlns="http://www.w3.org/2000/svg">
<path d="M2.44531 14.5625C0.8125 14.5625 -0.0078125 13.7578 -0.0078125 12.1406V2.60156C-0.0078125 0.984375 0.8125 0.179688 2.44531 0.179688H13.1172C14.75 0.179688 15.5625 0.992188 15.5625 2.60156V12.1406C15.5625 13.75 14.75 14.5625 13.1172 14.5625H2.44531ZM2.32812 13.3047H13.2188C13.9141 13.3047 14.3047 12.9375 14.3047 12.2109V4.84375C14.3047 4.125 13.9141 3.75 13.2188 3.75H2.32812C1.63281 3.75 1.25 4.125 1.25 4.84375V12.2109C1.25 12.9375 1.63281 13.3047 2.32812 13.3047ZM6.25781 6.55469C5.98438 6.55469 5.89062 6.47656 5.89062 6.20312V5.74219C5.89062 5.46875 5.98438 5.38281 6.25781 5.38281H6.71875C6.99219 5.38281 7.07812 5.46875 7.07812 5.74219V6.20312C7.07812 6.47656 6.99219 6.55469 6.71875 6.55469H6.25781ZM8.85156 6.55469C8.57812 6.55469 8.48438 6.47656 8.48438 6.20312V5.74219C8.48438 5.46875 8.57812 5.38281 8.85156 5.38281H9.3125C9.58594 5.38281 9.67969 5.46875 9.67969 5.74219V6.20312C9.67969 6.47656 9.58594 6.55469 9.3125 6.55469H8.85156ZM11.4453 6.55469C11.1719 6.55469 11.0859 6.47656 11.0859 6.20312V5.74219C11.0859 5.46875 11.1719 5.38281 11.4453 5.38281H11.9062C12.1797 5.38281 12.2734 5.46875 12.2734 5.74219V6.20312C12.2734 6.47656 12.1797 6.55469 11.9062 6.55469H11.4453ZM3.66406 9.10938C3.38281 9.10938 3.29688 9.03125 3.29688 8.75781V8.29688C3.29688 8.02344 3.38281 7.94531 3.66406 7.94531H4.11719C4.39844 7.94531 4.48438 8.02344 4.48438 8.29688V8.75781C4.48438 9.03125 4.39844 9.10938 4.11719 9.10938H3.66406ZM6.25781 9.10938C5.98438 9.10938 5.89062 9.03125 5.89062 8.75781V8.29688C5.89062 8.02344 5.98438 7.94531 6.25781 7.94531H6.71875C6.99219 7.94531 7.07812 8.02344 7.07812 8.29688V8.75781C7.07812 9.03125 6.99219 9.10938 6.71875 9.10938H6.25781ZM8.85156 9.10938C8.57812 9.10938 8.48438 9.03125 8.48438 8.75781V8.29688C8.48438 8.02344 8.57812 7.94531 8.85156 7.94531H9.3125C9.58594 7.94531 9.67969 8.02344 9.67969 8.29688V8.75781C9.67969 9.03125 9.58594 9.10938 9.3125 9.10938H8.85156ZM11.4453 9.10938C11.1719 9.10938 11.0859 9.03125 11.0859 8.75781V8.29688C11.0859 8.02344 11.1719 7.94531 11.4453 7.94531H11.9062C12.1797 7.94531 12.2734 8.02344 12.2734 8.29688V8.75781C12.2734 9.03125 12.1797 9.10938 11.9062 9.10938H11.4453ZM3.66406 11.6719C3.38281 11.6719 3.29688 11.5859 3.29688 11.3125V10.8516C3.29688 10.5781 3.38281 10.5 3.66406 10.5H4.11719C4.39844 10.5 4.48438 10.5781 4.48438 10.8516V11.3125C4.48438 11.5859 4.39844 11.6719 4.11719 11.6719H3.66406ZM6.25781 11.6719C5.98438 11.6719 5.89062 11.5859 5.89062 11.3125V10.8516C5.89062 10.5781 5.98438 10.5 6.25781 10.5H6.71875C6.99219 10.5 7.07812 10.5781 7.07812 10.8516V11.3125C7.07812 11.5859 6.99219 11.6719 6.71875 11.6719H6.25781ZM8.85156 11.6719C8.57812 11.6719 8.48438 11.5859 8.48438 11.3125V10.8516C8.48438 10.5781 8.57812 10.5 8.85156 10.5H9.3125C9.58594 10.5 9.67969 10.5781 9.67969 10.8516V11.3125C9.67969 11.5859 9.58594 11.6719 9.3125 11.6719H8.85156Z" fill="#131313"/>
</svg>
