<svg width="20" height="20" viewBox="0 0 20 20" fill="none" xmlns="http://www.w3.org/2000/svg">
<g id="Frame">
<path id="Vector" d="M3.125 10.5C3.125 6.97919 5.97919 4.125 9.5 4.125C13.0208 4.125 15.875 6.97919 15.875 10.5C15.875 14.0208 13.0208 16.875 9.5 16.875C5.97919 16.875 3.125 14.0208 3.125 10.5ZM9.5 3C5.35786 3 2 6.35786 2 10.5C2 14.6421 5.35786 18 9.5 18C13.6421 18 17 14.6421 17 10.5C17 6.35786 13.6421 3 9.5 3ZM9.49483 6.4862C9.45762 6.21175 9.22213 6 8.9375 6C8.627 6 8.375 6.252 8.375 6.5625V11.0625L8.38017 11.1388C8.41738 11.4133 8.65287 11.625 8.9375 11.625H11.9375L12.0138 11.6198C12.2883 11.5826 12.5 11.3471 12.5 11.0625C12.5 10.752 12.248 10.5 11.9375 10.5H9.5V6.5625L9.49483 6.4862Z" fill="#FA2840"/>
</g>
</svg>
