<svg width="20" height="20" viewBox="0 0 20 20" fill="none" xmlns="http://www.w3.org/2000/svg">
<g id="Link / undefined">
<path id="Vector" d="M7.70832 5.8335C8.0535 5.8335 8.33332 6.11332 8.33332 6.4585C8.33332 6.7723 8.10207 7.03208 7.80068 7.07672L7.70832 7.0835H5.83332C4.22249 7.0835 2.91666 8.38933 2.91666 10.0002C2.91666 11.5535 4.13088 12.8232 5.66195 12.9119L5.83332 12.9168H7.70832C8.0535 12.9168 8.33332 13.1967 8.33332 13.5418C8.33332 13.8557 8.10207 14.1154 7.80068 14.1601L7.70832 14.1668H5.83332C3.53214 14.1668 1.66666 12.3013 1.66666 10.0002C1.66666 7.76871 3.42079 5.94695 5.62536 5.8386L5.83332 5.8335H7.70832ZM14.1667 5.8335C16.4678 5.8335 18.3333 7.69898 18.3333 10.0002C18.3333 12.2316 16.5792 14.0533 14.3746 14.1617L14.1667 14.1668H12.2917C11.9465 14.1668 11.6667 13.887 11.6667 13.5418C11.6667 13.228 11.8979 12.9682 12.1993 12.9236L12.2917 12.9168H14.1667C15.7775 12.9168 17.0833 11.611 17.0833 10.0002C17.0833 8.44683 15.8691 7.17716 14.3381 7.08845L14.1667 7.0835H12.2917C11.9465 7.0835 11.6667 6.80367 11.6667 6.4585C11.6667 6.1447 11.8979 5.88491 12.1993 5.84027L12.2917 5.8335H14.1667ZM5.83332 9.37516H14.1667C14.5118 9.37516 14.7917 9.655 14.7917 10.0002C14.7917 10.3166 14.5565 10.5781 14.2515 10.6195L14.1667 10.6252H5.83332C5.48815 10.6252 5.20832 10.3453 5.20832 10.0002C5.20832 9.68375 5.44345 9.42225 5.74851 9.38083L5.83332 9.37516Z" fill="#FA2840"/>
</g>
</svg>
