<svg width="20" height="20" viewBox="0 0 20 20" fill="none" xmlns="http://www.w3.org/2000/svg">
<path fill-rule="evenodd" clip-rule="evenodd" d="M5.32069 5.32092C4.25953 6.63818 3.79867 8.48602 4.40542 10.6096C5.38571 14.0404 8.54898 16.1536 9.85152 16.8915C9.99013 16.9701 10.1483 16.9701 10.2869 16.8915C11.5895 16.1536 14.7528 14.0404 15.733 10.6096C16.3396 8.48603 15.8788 6.63817 14.8177 5.32091C13.7493 3.99468 12.0373 3.16356 10.0692 3.16356C8.10112 3.16356 6.38909 3.99468 5.32069 5.32092ZM4.28757 4.48866C5.6238 2.82994 7.7259 1.83691 10.0692 1.83691C12.4125 1.83691 14.5146 2.82994 15.8508 4.48866C17.1942 6.15636 17.7284 8.45428 17.0086 10.974C15.8752 14.9413 12.2938 17.2794 10.9408 18.0458C10.3965 18.3542 9.74186 18.3542 9.1976 18.0458C7.84458 17.2793 4.26336 14.9413 3.12982 10.974C2.40986 8.45429 2.94411 6.15635 4.28757 4.48866Z" fill="#FA2840"/>
<path fill-rule="evenodd" clip-rule="evenodd" d="M10.0686 10.4602C10.6182 10.4602 11.0636 10.0147 11.0636 9.46519C11.0636 8.91567 10.6182 8.4702 10.0686 8.4702C9.51913 8.4702 9.07366 8.91567 9.07366 9.46519C9.07366 10.0147 9.51913 10.4602 10.0686 10.4602ZM10.0686 11.7868C11.3508 11.7868 12.3903 10.7474 12.3903 9.46519C12.3903 8.18299 11.3508 7.14355 10.0686 7.14355C8.78644 7.14355 7.74701 8.18299 7.74701 9.46519C7.74701 10.7474 8.78644 11.7868 10.0686 11.7868Z" fill="#FA2840"/>
</svg>
