<svg width="36" height="36" viewBox="0 0 36 36" fill="none" xmlns="http://www.w3.org/2000/svg">
<g clip-path="url(#clip0_1644_8527)">
<path d="M17.6085 6.03737L9.50898 3.5459L9.02468 6.68583L11.346 7.45375L12.9659 17.0613L5.66797 32.5732H29.332L22.1342 17.0783L23.8877 7.43668L26.1423 6.68583L25.6579 3.5459L17.6085 6.03737Z" fill="#FA2840"/>
<path d="M17.6085 6.03737L9.50898 3.5459L9.02468 6.68583L11.346 7.45375L12.9659 17.0613L5.66797 32.5732H29.332L22.1342 17.0783L23.8877 7.43668L26.1423 6.68583L25.6579 3.5459L17.6085 6.03737Z" fill="#FA2840"/>
<path d="M17.5 6L9.5 3.5L9 6.5L17.5 9L23 7.5L26 6.5L25.5 3.5L17.5 6Z" fill="#DCDA75" stroke="#DCDA75"/>
</g>
<defs>
<clipPath id="clip0_1644_8527">
<rect width="25" height="30" fill="white" transform="translate(5 3)"/>
</clipPath>
</defs>
</svg>
