<svg width="33" height="32" viewBox="0 0 33 32" fill="none" xmlns="http://www.w3.org/2000/svg">
<g clip-path="url(#clip0_1644_8518)">
<path d="M17.4875 21.9011L14.3583 23.5698L3.48891 16.1909L8.51511 13.3121L17.4875 21.9011Z" fill="#FA2840"/>
<path d="M21.0622 20.0169L15.6472 22.8887L5.28044 11.7273L11.8162 8.19677L21.0622 20.0169Z" fill="#FFA9B6"/>
<path d="M9.66728 6.09457L16.2286 2.53815L21.781 19.6447L18.0717 21.6206L9.66728 6.09457Z" fill="#FA2840"/>
<path d="M21.5493 19.9971L25.3609 17.9655L22.6243 2.45948L16.9626 5.27814L21.5493 19.9971Z" fill="#FFA9B6"/>
<path d="M23.2111 5.87079L27.5451 3.5598L25.8259 17.5325L24.3572 18.3156L23.2111 5.87079Z" fill="#FA2840"/>
<path d="M14.3546 23.7314L24.5587 29.9284L25.9577 17.5446" fill="#DCDA75"/>
</g>
<defs>
<clipPath id="clip0_1644_8518">
<rect width="33" height="32" fill="white"/>
</clipPath>
</defs>
</svg>
