<svg width="31" height="21" viewBox="0 0 31 21" fill="none" xmlns="http://www.w3.org/2000/svg">
<path d="M30.0391 0.727985L0.0400391 0.970703L0.158736 20.2461L30.1578 20.0034L30.0391 0.727985Z" fill="#DCDA75"/>
<path d="M30.0811 7C27.448 4.36475 25 2.5 23.1836 0.777832L30.0452 0.777832L30.0811 7Z" fill="#FFA9B6"/>
<path d="M23.4451 20.0286C26.2152 17.3065 27.8203 15.7015 29.9854 13.5923L29.9967 20.0123L23.4451 20.0286Z" fill="#FFA9B6"/>
<path d="M0.0405171 7.67614C2.67544 5.00132 5.35046 2.32629 6.78549 0.970583L0.0412417 0.970387L0.0405171 7.67614Z" fill="#FFA9B6"/>
<path d="M6.23285 20.1757C4.28033 18.3768 2.14031 15.7017 0.115234 13.626L0.182536 20.262L6.23285 20.1757Z" fill="#FFA9B6"/>
<path d="M11 11L15 7L19 11L15 15L11 11Z" fill="#FA2840" stroke="#FA2840"/>
</svg>
